<svg xmlns="http://www.w3.org/2000/svg" width="300" height="22" viewBox="0 0 420.21 115.97">
<title>logo-white</title>
<path d="M74.9,61.85a26,26,0,0,1,6.59,17.44,26.67,26.67,0,0,1-26.6,26.6H21.59a9,9,0,0,1-9-9v-70a9,9,0,0,1,9-9h33.3a26.65,26.65,0,0,1,26.6,26.59A26,26,0,0,1,74.9,61.85ZM63.43,44.28A8.43,8.43,0,0,0,55,35.86H30.74v17H55a8.43,8.43,0,0,0,8.42-8.42ZM55,87.71a8.42,8.42,0,1,0,.58-16.83H30.74v17H55Z" transform="translate(-12.59 -17.68)" fill="#FFFFFF"/>
<path d="M120.65,43.91a9,9,0,0,1,0,18.06,12.8,12.8,0,0,0-12.81,12.79v22a9,9,0,0,1-18.06,0h0V53a9,9,0,0,1,9-9,9.35,9.35,0,0,1,7.32,3.66A31.42,31.42,0,0,1,120.74,44Z" transform="translate(-12.59 -17.68)" fill="#FFFFFF"/>
<path d="M140.17,33.18a9.14,9.14,0,0,1,0-12.93h0a9.43,9.43,0,0,1,12.93,0,9.14,9.14,0,1,1-12.93,12.93Zm-2.56,64.05V53.48a9,9,0,1,1,18,0v43.8a9,9,0,0,1-18,0Z" transform="translate(-12.59 -17.68)" fill="#FFFFFF"/>
<path d="M163.59,75.39a31,31,0,0,1,31-31h0a29.74,29.74,0,0,1,12.69,2.81V27a9,9,0,1,1,18.05,0V97.23a9,9,0,0,1-9,9,9.12,9.12,0,0,1-7.19-3.66,31.39,31.39,0,0,1-14.64,3.66,31,31,0,0,1-31-31Zm31,12.81a12.81,12.81,0,1,0-12.81-12.81h0a12.81,12.81,0,0,0,12.8,12.81Z" transform="translate(-12.59 -17.68)" fill="#FFFFFF"/>
<path d="M286,44a9.25,9.25,0,0,1,9.27,9.25v49a31.34,31.34,0,0,1-31.33,31.35h0a9.27,9.27,0,1,1,0-18.54h0a13,13,0,0,0,12.94-11.22A32.32,32.32,0,0,1,264,106.62a31.36,31.36,0,1,1,14.76-59A9.47,9.47,0,0,1,286.23,44Zm-9.28,31.35a12.86,12.86,0,1,0,0,.14Z" transform="translate(-12.59 -17.68)" fill="#FFFFFF"/>
<path d="M332.56,106.25a31,31,0,1,1,31-31,9.18,9.18,0,0,1-9.15,9.15H323.65a12.79,12.79,0,0,0,9,3.78,9,9,0,1,1,0,18h0Zm9.15-40a12.67,12.67,0,0,0-17.93-.13l-.13.13Z" transform="translate(-12.59 -17.68)" fill="#FFFFFF"/>
<path d="M371.11,75.39a31,31,0,0,1,31-31h0A29.74,29.74,0,0,1,414.8,47.2V27a9,9,0,1,1,18,0V97.23a9,9,0,0,1-9,9,9.12,9.12,0,0,1-7.19-3.66A31.41,31.41,0,0,1,402,106.25a31,31,0,0,1-31-31Zm31,12.81A12.81,12.81,0,1,0,389.3,75.39h0A12.82,12.82,0,0,0,402.1,88.2Z" transform="translate(-12.59 -17.68)" fill="#FFFFFF"/></svg>